# xmcd
#
# Track frame offsets:
# 150
# 19171
# 38727
# 55670
# 67814
# 76449
# 88188
# 100510
# 112780
# 125387
# 143473
# 157883
#
# Disc length: 2353 seconds
#
#
# Revision: 0
# Processed by: cddbd v1.5PL3 Copyright (c) Steve Scherf et al.
# Submitted via: FreeRIP 2.60 
#
DISCID=82092f0c
DTITLE=Many Assocated Artist - Count Down Country 
DYEAR=1900
DGENRE=Country
TTITLE0=Kris Kistofferson ! - Sunday Morning Coming Down
TTITLE1=F.J. Myers/G.Baker-MorganActive/RickHall !- I Swear
TTITLE2=Gibb Brothers ! - Islands In The Stream
TTITLE3=Willie Nelson ! - Crazy
TTITLE4=Ben Peters ! - Kiss an Angel Good Mornin
TTITLE5=W. Jennings ! - Mammas Dont Let You Babies Grow Up To Be Cowboys
TTITLE6=H. Williams ! - Your Cheating Heart
TTITLE7=T. Wynette ! - Stand By Your Man
TTITLE8=H.Howard ! - Heartaches By The Number
TTITLE9=L. Richie ! - Lady
TTITLE10=C. Putman ! - Green, Green Grass Of Home
TTITLE11=H. Carmichael ! - Gerogia On My Mind
EXTD=Country Classics
EXTT0=
EXTT1=
EXTT2=
EXTT3=
EXTT4=
EXTT5=
EXTT6=
EXTT7=
EXTT8=
EXTT9=
EXTT10=
EXTT11=
PLAYORDER=
